<?xml version="1.0" encoding="UTF-8" standalone="no"?>
<!-- Generator: Adobe Illustrator 16.0.0, SVG Export Plug-In . SVG Version: 6.00 Build 0)  -->

<svg
   xmlns:dc="http://purl.org/dc/elements/1.1/"
   xmlns:cc="http://creativecommons.org/ns#"
   xmlns:rdf="http://www.w3.org/1999/02/22-rdf-syntax-ns#"
   xmlns:svg="http://www.w3.org/2000/svg"
   xmlns="http://www.w3.org/2000/svg"
   xmlns:sodipodi="http://sodipodi.sourceforge.net/DTD/sodipodi-0.dtd"
   xmlns:inkscape="http://www.inkscape.org/namespaces/inkscape"
   version="1.1"
   id="Capa_1"
   x="0px"
   y="0px"
   width="50"
   height="50"
   viewBox="0 0 50.000001 50.000001"
   xml:space="preserve"
   inkscape:version="0.91 r13725"
   sodipodi:docname="graduacion.svg"><metadata
     id="metadata45"><rdf:RDF><cc:Work
         rdf:about=""><dc:format>image/svg+xml</dc:format><dc:type
           rdf:resource="http://purl.org/dc/dcmitype/StillImage" /><dc:title></dc:title></cc:Work></rdf:RDF></metadata><defs
     id="defs43" /><sodipodi:namedview
     pagecolor="#ffffff"
     bordercolor="#666666"
     borderopacity="1"
     objecttolerance="10"
     gridtolerance="10"
     guidetolerance="10"
     inkscape:pageopacity="0"
     inkscape:pageshadow="2"
     inkscape:window-width="1366"
     inkscape:window-height="738"
     id="namedview41"
     showgrid="false"
     inkscape:zoom="4.0839241"
     inkscape:cx="86.597173"
     inkscape:cy="7.9725072"
     inkscape:window-x="0"
     inkscape:window-y="1"
     inkscape:window-maximized="1"
     inkscape:current-layer="Capa_1" /><g
     id="g3473"
     transform="matrix(1.5678897,0,0,1.5678897,-7.8801803e-7,-28.394484)"><path
       style="opacity:1;fill:#aa0000;fill-opacity:1;fill-rule:evenodd;stroke:none;stroke-width:7;stroke-miterlimit:4;stroke-dasharray:none;stroke-opacity:1"
       d="M 25 0 A 25.000001 25.000001 0 0 0 0 25 A 25.000001 25.000001 0 0 0 25 50 A 25.000001 25.000001 0 0 0 50 25 A 25.000001 25.000001 0 0 0 25 0 z M 25.320312 10.150391 C 25.668504 10.139278 26.018816 10.212259 26.339844 10.373047 L 41.324219 17.873047 C 42.02115 18.222061 42.476952 18.92559 42.5 19.707031 C 42.523048 20.488473 42.116387 21.220366 41.441406 21.613281 L 26.972656 30.048828 C 26.354747 30.412111 25.591274 30.434858 24.949219 30.113281 L 12.533203 23.898438 L 22.996094 20.275391 C 23.581077 20.747328 24.664301 20.974609 25.751953 20.974609 C 27.355444 20.974609 28.656492 20.461106 28.654297 19.414062 C 28.654297 18.971758 28.421729 18.431648 28.033203 17.953125 C 28.104543 18.13751 28.142578 18.317792 28.142578 18.482422 C 28.142578 19.382396 27.027177 19.822266 25.646484 19.822266 C 23.243991 19.822266 23.169715 18.236075 23.207031 18.105469 C 23.207031 18.105469 22.721825 18.547481 22.623047 19.029297 L 11.263672 22.962891 L 11.234375 30.275391 C 11.975208 30.543188 12.503906 31.25401 12.503906 32.085938 C 12.503906 32.616044 12.28737 33.09654 11.939453 33.443359 C 12.276395 34.577108 12.770461 36.940061 11.751953 38.759766 C 11.456718 39.28658 10.950944 39.660781 10.359375 39.796875 C 9.7678064 39.932969 9.1490409 39.806288 8.65625 39.455078 L 8.390625 39.263672 C 7.8703958 38.892707 7.5445149 38.306489 7.5039062 37.669922 C 7.4632976 37.031159 7.7101866 36.409231 8.1777344 35.974609 C 8.7616203 35.430235 9.2555167 34.668249 9.4003906 33.611328 C 8.9438182 33.255728 8.6503906 32.706042 8.6503906 32.085938 C 8.6503906 31.250717 9.1870315 30.533794 9.9355469 30.271484 L 9.9667969 22.613281 C 9.2676703 22.263169 8.8162588 21.559641 8.7910156 20.779297 C 8.76687 19.997856 9.1726754 19.265963 9.8476562 18.873047 L 24.316406 10.439453 C 24.626458 10.258361 24.972121 10.161503 25.320312 10.150391 z M 35.615234 26.433594 L 35.615234 31.792969 C 35.615234 31.792969 32.946776 36.421875 25.535156 36.421875 C 19.642518 36.421875 15.453125 31.792969 15.453125 31.792969 L 15.453125 26.853516 L 24.878906 31.583984 C 25.523156 31.907756 26.290907 31.882814 26.912109 31.519531 L 35.615234 26.433594 z "
       transform="matrix(0.63779997,0,0,0.63779997,5.0259787e-7,18.110001)"
       id="path3373" /><g
       transform="matrix(0.70000454,0,0,0.70000454,4.7834582,22.893225)"
       style="fill:#ffffff"
       id="g3"><g
         style="fill:#ffffff"
         id="g5" /></g></g><g
     id="g11"
     transform="translate(0,18.110001)" /><g
     id="g13"
     transform="translate(0,18.110001)" /><g
     id="g15"
     transform="translate(0,18.110001)" /><g
     id="g17"
     transform="translate(0,18.110001)" /><g
     id="g19"
     transform="translate(0,18.110001)" /><g
     id="g21"
     transform="translate(0,18.110001)" /><g
     id="g23"
     transform="translate(0,18.110001)" /><g
     id="g25"
     transform="translate(0,18.110001)" /><g
     id="g27"
     transform="translate(0,18.110001)" /><g
     id="g29"
     transform="translate(0,18.110001)" /><g
     id="g31"
     transform="translate(0,18.110001)" /><g
     id="g33"
     transform="translate(0,18.110001)" /><g
     id="g35"
     transform="translate(0,18.110001)" /><g
     id="g37"
     transform="translate(0,18.110001)" /><g
     id="g39"
     transform="translate(0,18.110001)" /></svg>