<?xml version="1.0" encoding="UTF-8" standalone="no"?>
<!-- Generator: Adobe Illustrator 16.0.0, SVG Export Plug-In . SVG Version: 6.00 Build 0)  -->

<svg
   xmlns:dc="http://purl.org/dc/elements/1.1/"
   xmlns:cc="http://creativecommons.org/ns#"
   xmlns:rdf="http://www.w3.org/1999/02/22-rdf-syntax-ns#"
   xmlns:svg="http://www.w3.org/2000/svg"
   xmlns="http://www.w3.org/2000/svg"
   xmlns:sodipodi="http://sodipodi.sourceforge.net/DTD/sodipodi-0.dtd"
   xmlns:inkscape="http://www.inkscape.org/namespaces/inkscape"
   version="1.1"
   id="Capa_1"
   x="0px"
   y="0px"
   width="122.699px"
   height="122.699px"
   viewBox="0 0 122.699 122.699"
   style="enable-background:new 0 0 122.699 122.699;"
   xml:space="preserve"
   inkscape:version="0.91 r13725"
   sodipodi:docname="liderazgo.svg"><metadata
     id="metadata51"><rdf:RDF><cc:Work
         rdf:about=""><dc:format>image/svg+xml</dc:format><dc:type
           rdf:resource="http://purl.org/dc/dcmitype/StillImage" /></cc:Work></rdf:RDF></metadata><defs
     id="defs49" /><sodipodi:namedview
     pagecolor="#ffffff"
     bordercolor="#666666"
     borderopacity="1"
     objecttolerance="10"
     gridtolerance="10"
     guidetolerance="10"
     inkscape:pageopacity="0"
     inkscape:pageshadow="2"
     inkscape:window-width="902"
     inkscape:window-height="480"
     id="namedview47"
     showgrid="false"
     inkscape:zoom="1.9234061"
     inkscape:cx="109.06426"
     inkscape:cy="61.349499"
     inkscape:window-x="0"
     inkscape:window-y="1"
     inkscape:window-maximized="0"
     inkscape:current-layer="Capa_1" /><g
     id="g3"
     style="fill:#aa0000"><circle
       cx="19.5"
       cy="12.2"
       r="12.1"
       id="circle5"
       style="fill:#aa0000" /><path
       d="M6,66.699h1.2v24c0,3.301,2.7,6,6,6h12.6c3.3,0,6-2.699,6-6V89.3c-1.1-2.101-1.8-4.5-1.8-7v-31.4c0-6.1,3.7-11.4,9-13.7   v-2.4c0-3.3-2.7-6-6-6H6c-3.3,0-6,2.7-6,6v25.9C0,64,2.6,66.699,6,66.699z"
       id="path7"
       style="fill:#aa0000" /><circle
       cx="103.3"
       cy="12.2"
       r="12.1"
       id="circle9"
       style="fill:#aa0000" /><path
       d="M83.699,34.7v2.4c5.301,2.3,9,7.6,9,13.7v31.3c0,2.5-0.6,4.9-1.799,7v1.4c0,3.3,2.699,6,6,6h12.6c3.3,0,6-2.7,6-6v-24   h1.199c3.301,0,6-2.7,6-6V34.7c0-3.3-2.699-6-6-6h-27C86.4,28.7,83.699,31.399,83.699,34.7z"
       id="path11"
       style="fill:#aa0000" /><path
       d="M39.1,50.899L39.1,50.899v9.8v21.6c0,3.3,2.7,6,6,6h2.3v28.3c0,3.3,2.7,6,6,6h16.1c3.3,0,6-2.7,6-6v-28.4h2.3   c3.3,0,6-2.699,6-6V60.7v-9.8l0,0c0-3.3-2.7-6-6-6H45.1C41.7,44.899,39.1,47.6,39.1,50.899z"
       id="path13"
       style="fill:#aa0000" /><circle
       cx="61.4"
       cy="26"
       r="13.9"
       id="circle15"
       style="fill:#aa0000" /></g><g
     id="g17" /><g
     id="g19" /><g
     id="g21" /><g
     id="g23" /><g
     id="g25" /><g
     id="g27" /><g
     id="g29" /><g
     id="g31" /><g
     id="g33" /><g
     id="g35" /><g
     id="g37" /><g
     id="g39" /><g
     id="g41" /><g
     id="g43" /><g
     id="g45" /></svg>