<?xml version="1.0" encoding="UTF-8" standalone="no"?>
<!-- Created with Inkscape (http://www.inkscape.org/) -->

<svg
   xmlns:dc="http://purl.org/dc/elements/1.1/"
   xmlns:cc="http://creativecommons.org/ns#"
   xmlns:rdf="http://www.w3.org/1999/02/22-rdf-syntax-ns#"
   xmlns:svg="http://www.w3.org/2000/svg"
   xmlns="http://www.w3.org/2000/svg"
   xmlns:sodipodi="http://sodipodi.sourceforge.net/DTD/sodipodi-0.dtd"
   xmlns:inkscape="http://www.inkscape.org/namespaces/inkscape"
   width="300"
   height="100"
   viewBox="0 0 300 100"
   id="svg2"
   version="1.1"
   inkscape:version="0.91 r13725"
   sodipodi:docname="logo.svg">
  <defs
     id="defs4" />
  <sodipodi:namedview
     id="base"
     pagecolor="#ffffff"
     bordercolor="#666666"
     borderopacity="1.0"
     inkscape:pageopacity="0.0"
     inkscape:pageshadow="2"
     inkscape:zoom="3"
     inkscape:cx="150"
     inkscape:cy="50"
     inkscape:document-units="px"
     inkscape:current-layer="layer1"
     showgrid="false"
     units="px"
     inkscape:window-width="1366"
     inkscape:window-height="738"
     inkscape:window-x="0"
     inkscape:window-y="1"
     inkscape:window-maximized="1"
     showguides="false" />
  <metadata
     id="metadata7">
    <rdf:RDF>
      <cc:Work
         rdf:about="">
        <dc:format>image/svg+xml</dc:format>
        <dc:type
           rdf:resource="http://purl.org/dc/dcmitype/StillImage" />
        <dc:title></dc:title>
      </cc:Work>
    </rdf:RDF>
  </metadata>
  <g
     inkscape:label="Capa 1"
     inkscape:groupmode="layer"
     id="layer1"
     transform="translate(0,-952.36216)">
    <text
       xml:space="preserve"
       style="font-style:normal;font-variant:normal;font-weight:normal;font-stretch:normal;font-size:180px;line-height:125%;font-family:'Square Stone-7';-inkscape-font-specification:'Square Stone-7';letter-spacing:0px;word-spacing:0px;fill:#000000;fill-opacity:1;stroke:none;stroke-width:1px;stroke-linecap:butt;stroke-linejoin:miter;stroke-opacity:1"
       x="128.57143"
       y="183.79079"
       id="text4136"
       sodipodi:linespacing="125%"><tspan
         sodipodi:role="line"
         id="tspan4138"
         x="128.57143"
         y="183.79079" /></text>
    <flowRoot
       xml:space="preserve"
       id="flowRoot4758"
       style="font-style:normal;font-weight:normal;font-size:180px;line-height:125%;font-family:sans-serif;letter-spacing:0px;word-spacing:0px;fill:#000000;fill-opacity:1;stroke:none;stroke-width:1px;stroke-linecap:butt;stroke-linejoin:miter;stroke-opacity:1"
       transform="translate(0,525.36216)"><flowRegion
         id="flowRegion4760"><rect
           id="rect4762"
           width="828.57141"
           height="548.57141"
           x="314.28571"
           y="818.42859" /></flowRegion><flowPara
         id="flowPara4764" /></flowRoot>    <g
       id="g4951"
       style="fill:#aa0000"
       transform="matrix(0.19640736,0,0,0.19640736,91.302804,721.48602)">
      <g
         style="fill:#aa0000;stroke:#000000"
         id="g4367-1-5-1-8"
         transform="matrix(1.4725831,0,0,1.4725831,-12.493101,-349.6127)">
        <g
           transform="translate(-339.7259,-260.24535)"
           style="font-style:normal;font-weight:normal;font-size:400px;line-height:125%;font-family:sans-serif;letter-spacing:0px;word-spacing:0px;fill:#aa0000;fill-opacity:1;stroke:#000000;stroke-width:7;stroke-linecap:butt;stroke-linejoin:miter;stroke-miterlimit:4;stroke-dasharray:none;stroke-opacity:1"
           id="text4140-6-8-1-5-3-5-6">
          <path
             style="color:#000000;font-style:normal;font-variant:normal;font-weight:normal;font-stretch:normal;font-size:medium;line-height:125%;font-family:Propaganda;-inkscape-font-specification:Propaganda;text-indent:0;text-align:start;text-decoration:none;text-decoration-line:none;text-decoration-style:solid;text-decoration-color:#000000;letter-spacing:0px;word-spacing:0px;text-transform:none;direction:ltr;block-progression:tb;writing-mode:lr-tb;baseline-shift:baseline;text-anchor:start;white-space:normal;clip-rule:nonzero;display:inline;overflow:visible;visibility:visible;opacity:1;isolation:auto;mix-blend-mode:normal;color-interpolation:sRGB;color-interpolation-filters:linearRGB;solid-color:#000000;solid-opacity:1;fill:#aa0000;fill-opacity:1;fill-rule:nonzero;stroke:none;stroke-width:7;stroke-linecap:butt;stroke-linejoin:miter;stroke-miterlimit:4;stroke-dasharray:none;stroke-dashoffset:0;stroke-opacity:1;color-rendering:auto;image-rendering:auto;shape-rendering:auto;text-rendering:auto;enable-background:accumulate"
             d="M -269.17383,701.04883 C -309.44738,741.32671 -349.72428,781.60124 -390,821.87695 l 0,286.48825 371.974609,0 0,-212.93551 -148.142579,0 0,68.08789 -75.69141,0 0,-86.71485 27.61133,-27.61132 196.222659,0 0,-148.14258 z m 22.82227,18.55469 209.771482,0 0,111.0332 -159.113282,0 30.1875,-30.1875 z m -125.09375,117.80664 111.0332,0 0,126.10742 -111.0332,0 z m 223.83203,76.57422 111.033202,0 0,175.82812 -111.033202,0 z"
             transform="matrix(0.67907882,0,0,0.67907882,348.2097,854.42225)"
             id="path3417-3-7-6-6-3"
             inkscape:connector-curvature="0"
             sodipodi:nodetypes="ccccccccccccccccccccccccccccc" />
        </g>
        <g
           transform="translate(611.3235,-991.83556)"
           style="font-style:normal;font-weight:normal;font-size:400px;line-height:125%;font-family:sans-serif;letter-spacing:0px;word-spacing:0px;fill:#aa0000;fill-opacity:1;stroke:#000000;stroke-width:5.5999999;stroke-linecap:butt;stroke-linejoin:miter;stroke-miterlimit:4;stroke-dasharray:none;stroke-opacity:1"
           id="text4140-6-8-82-3-0-41-0-0" />
        <g
           transform="translate(582.57595,-977.16842)"
           style="font-style:normal;font-weight:normal;font-size:400px;line-height:125%;font-family:sans-serif;letter-spacing:0px;word-spacing:0px;fill:#aa0000;fill-opacity:1;stroke:#000000;stroke-width:5.5999999;stroke-linecap:butt;stroke-linejoin:miter;stroke-miterlimit:4;stroke-dasharray:none;stroke-opacity:1"
           id="text4140-6-8-5-4-3-6-5" />
        <g
           transform="translate(-165.71426,-220.35706)"
           style="font-style:normal;font-weight:normal;font-size:400px;line-height:125%;font-family:sans-serif;letter-spacing:0px;word-spacing:0px;fill:#aa0000;fill-opacity:1;stroke:#000000;stroke-width:5.5999999;stroke-linecap:butt;stroke-linejoin:miter;stroke-miterlimit:4;stroke-dasharray:none;stroke-opacity:1"
           id="text4140-6-8-8-7-7-0-4" />
        <g
           transform="translate(-165.71426,-848.06646)"
           style="font-style:normal;font-weight:normal;font-size:400px;line-height:125%;font-family:sans-serif;letter-spacing:0px;word-spacing:0px;fill:#aa0000;fill-opacity:1;stroke:#000000;stroke-width:5.5999999;stroke-linecap:butt;stroke-linejoin:miter;stroke-miterlimit:4;stroke-dasharray:none;stroke-opacity:1"
           id="text4140-6-8-7-0-2-4-0" />
      </g>
      <g
         style="font-style:normal;font-weight:normal;font-size:medium;line-height:125%;font-family:sans-serif;letter-spacing:0px;word-spacing:0px;fill:#aa0000;fill-opacity:1;stroke:none;stroke-width:1px;stroke-linecap:butt;stroke-linejoin:miter;stroke-opacity:1"
         id="g4921"
         transform="matrix(1.5800758,0,0,1.5800758,-696.79691,-699.70862)">
        <path
           id="path4897"
           style="font-style:normal;font-variant:normal;font-weight:normal;font-stretch:normal;font-family:Propaganda;-inkscape-font-specification:Propaganda;letter-spacing:15px;fill:#aa0000"
           d="m 570.85715,1293.1622 -54,0 19.8,19.8 -19.8,19.8 54,0 0,39.6 -108,0 0,-39.6 19.8,-19.8 -19.8,-19.8 0,-39.6 108,0 0,39.6 z"
           inkscape:connector-curvature="0" />
        <path
           id="path4899"
           style="font-style:normal;font-variant:normal;font-weight:normal;font-stretch:normal;font-family:Propaganda;-inkscape-font-specification:Propaganda;letter-spacing:15px;fill:#aa0000"
           d="m 643.31652,1253.5622 0,16.2 28.8,28.8 0,-45 39.6,0 0,118.8 -39.6,0 0,-16.2 -28.8,-28.8 0,45 -39.6,0 0,-118.8 39.6,0 z"
           inkscape:connector-curvature="0" />
        <path
           id="path4901"
           style="font-style:normal;font-variant:normal;font-weight:normal;font-stretch:normal;font-family:Propaganda;-inkscape-font-specification:Propaganda;letter-spacing:15px;fill:#aa0000"
           d="m 784.1759,1307.5622 0,25.2 28.8,0 0,-19.8 39.6,0 0,59.4 -108,0 0,-82.8 36,-36 72,0 0,39.6 -54,0 -14.4,14.4 z"
           inkscape:connector-curvature="0" />
        <path
           id="path4903"
           style="font-style:normal;font-variant:normal;font-weight:normal;font-stretch:normal;font-family:Propaganda;-inkscape-font-specification:Propaganda;letter-spacing:15px;fill:#aa0000"
           d="m 925.03527,1253.5622 0,118.8 -39.6,0 0,-118.8 39.6,0 z"
           inkscape:connector-curvature="0" />
        <path
           id="path4905"
           style="font-style:normal;font-variant:normal;font-weight:normal;font-stretch:normal;font-family:Propaganda;-inkscape-font-specification:Propaganda;letter-spacing:15px;fill:#aa0000"
           d="m 1066.0915,1293.1622 -45,0 39.6,39.6 5.4,0 0,39.6 -107.99998,0 0,-39.6 44.99998,0 -39.59998,-39.6 -5.4,0 0,-39.6 107.99998,0 0,39.6 z"
           inkscape:connector-curvature="0" />
      </g>
      <g
         style="font-style:normal;font-weight:normal;font-size:medium;line-height:125%;font-family:sans-serif;letter-spacing:0px;word-spacing:0px;fill:#aa0000;fill-opacity:1;stroke:none;stroke-width:1px;stroke-linecap:butt;stroke-linejoin:miter;stroke-opacity:1"
         id="g4928"
         transform="translate(-428.30468,36.365492)">
        <path
           id="path4907"
           style="font-style:normal;font-variant:normal;font-weight:normal;font-stretch:normal;font-family:Propaganda;-inkscape-font-specification:Propaganda;letter-spacing:15px;fill:#aa0000"
           d="m 462.85715,1597.3622 0,-118.8 108,0 0,118.8 -108,0 z m 39.6,-79.2 0,39.6 28.8,0 0,-39.6 -28.8,0 z"
           inkscape:connector-curvature="0" />
        <path
           id="path4909"
           style="font-style:normal;font-variant:normal;font-weight:normal;font-stretch:normal;font-family:Propaganda;-inkscape-font-specification:Propaganda;letter-spacing:15px;fill:#aa0000"
           d="m 643.31652,1478.5622 0,16.2 28.8,28.8 0,-45 39.6,0 0,118.8 -39.6,0 0,-16.2 -28.8,-28.8 0,45 -39.6,0 0,-118.8 39.6,0 z"
           inkscape:connector-curvature="0" />
        <path
           id="path4911"
           style="font-style:normal;font-variant:normal;font-weight:normal;font-stretch:normal;font-family:Propaganda;-inkscape-font-specification:Propaganda;letter-spacing:15px;fill:#aa0000"
           d="m 744.5759,1518.1622 0,-39.6 108,0 0,39.6 -5.4,0 -39.6,39.6 45,0 0,39.6 -108,0 0,-39.6 5.4,0 39.6,-39.6 -45,0 z"
           inkscape:connector-curvature="0" />
        <path
           id="path4913"
           style="font-style:normal;font-variant:normal;font-weight:normal;font-stretch:normal;font-family:Propaganda;-inkscape-font-specification:Propaganda;letter-spacing:15px;fill:#aa0000"
           d="m 885.43527,1597.3622 0,-82.8 36,-36 72,0 0,118.8 -39.6,0 0,-19.8 -28.8,0 0,19.8 -39.6,0 z m 39.6,-64.8 0,5.4 28.8,0 0,-19.8 -14.4,0 -14.4,14.4 z"
           inkscape:connector-curvature="0" />
        <path
           id="path4915"
           style="font-style:normal;font-variant:normal;font-weight:normal;font-stretch:normal;font-family:Propaganda;-inkscape-font-specification:Propaganda;letter-spacing:15px;fill:#aa0000"
           d="m 1065.8946,1478.5622 0,79.2 28.8,0 0,-19.8 39.6,0 0,59.4 -108,0 0,-118.8 39.6,0 z"
           inkscape:connector-curvature="0" />
        <path
           id="path4917"
           style="font-style:normal;font-variant:normal;font-weight:normal;font-stretch:normal;font-family:Propaganda;-inkscape-font-specification:Propaganda;letter-spacing:15px;fill:#aa0000"
           d="m 1275.154,1518.1622 -54,0 19.8,19.8 -19.8,19.8 54,0 0,39.6 -108,0 0,-39.6 19.8,-19.8 -19.8,-19.8 0,-39.6 108,0 0,39.6 z"
           inkscape:connector-curvature="0" />
        <path
           id="path4919"
           style="font-style:normal;font-variant:normal;font-weight:normal;font-stretch:normal;font-family:Propaganda;-inkscape-font-specification:Propaganda;letter-spacing:15px;fill:#aa0000"
           d="m 1308.0134,1518.1622 0,-39.6 108,0 0,39.6 -5.4,0 -39.6,39.6 45,0 0,39.6 -108,0 0,-39.6 5.4,0 39.6,-39.6 -45,0 z"
           inkscape:connector-curvature="0" />
      </g>
      <g
         style="fill:#aa0000;stroke:none"
         id="g4367-1-5-1-8-1"
         transform="matrix(1.4725831,0,0,1.4725831,-12.493418,-349.61214)">
        <g
           transform="translate(-339.7259,-260.24535)"
           style="font-style:normal;font-weight:normal;font-size:400px;line-height:125%;font-family:sans-serif;letter-spacing:0px;word-spacing:0px;fill:#aa0000;fill-opacity:1;stroke:none;stroke-width:7;stroke-linecap:butt;stroke-linejoin:miter;stroke-miterlimit:4;stroke-dasharray:none;stroke-opacity:1"
           id="text4140-6-8-1-5-3-5-6-5" />
        <g
           transform="translate(611.3235,-991.83556)"
           style="font-style:normal;font-weight:normal;font-size:400px;line-height:125%;font-family:sans-serif;letter-spacing:0px;word-spacing:0px;fill:#aa0000;fill-opacity:1;stroke:none;stroke-width:5.5999999;stroke-linecap:butt;stroke-linejoin:miter;stroke-miterlimit:4;stroke-dasharray:none;stroke-opacity:1"
           id="text4140-6-8-82-3-0-41-0-0-8" />
        <g
           transform="translate(582.57595,-977.16842)"
           style="font-style:normal;font-weight:normal;font-size:400px;line-height:125%;font-family:sans-serif;letter-spacing:0px;word-spacing:0px;fill:#aa0000;fill-opacity:1;stroke:none;stroke-width:5.5999999;stroke-linecap:butt;stroke-linejoin:miter;stroke-miterlimit:4;stroke-dasharray:none;stroke-opacity:1"
           id="text4140-6-8-5-4-3-6-5-4" />
        <g
           transform="translate(-165.71426,-220.35706)"
           style="font-style:normal;font-weight:normal;font-size:400px;line-height:125%;font-family:sans-serif;letter-spacing:0px;word-spacing:0px;fill:#aa0000;fill-opacity:1;stroke:none;stroke-width:5.5999999;stroke-linecap:butt;stroke-linejoin:miter;stroke-miterlimit:4;stroke-dasharray:none;stroke-opacity:1"
           id="text4140-6-8-8-7-7-0-4-4" />
        <g
           transform="translate(-165.71426,-848.06646)"
           style="font-style:normal;font-weight:normal;font-size:400px;line-height:125%;font-family:sans-serif;letter-spacing:0px;word-spacing:0px;fill:#aa0000;fill-opacity:1;stroke:none;stroke-width:5.5999999;stroke-linecap:butt;stroke-linejoin:miter;stroke-miterlimit:4;stroke-dasharray:none;stroke-opacity:1"
           id="text4140-6-8-7-0-2-4-0-3" />
      </g>
    </g>
    <flowRoot
       xml:space="preserve"
       id="flowRoot4886"
       style="font-style:normal;font-weight:normal;font-size:180px;line-height:125%;font-family:sans-serif;letter-spacing:0px;word-spacing:0px;fill:#000000;fill-opacity:1;stroke:none;stroke-width:1px;stroke-linecap:butt;stroke-linejoin:miter;stroke-opacity:1"
       transform="translate(0,525.36216)"><flowRegion
         id="flowRegion4888"><rect
           id="rect4890"
           width="377.14285"
           height="182.85715"
           x="-394.28571"
           y="1247" /></flowRegion><flowPara
         id="flowPara4892" /></flowRoot>  </g>
</svg>
